<?xml version="1.0" encoding="UTF-8"?>
<svg version="1.1" xmlns="http://www.w3.org/2000/svg" width="1024" height="339">
<path d="M0 0 C337.92 0 675.84 0 1024 0 C1024 111.87 1024 223.74 1024 339 C686.08 339 348.16 339 0 339 C0 227.13 0 115.26 0 0 Z " fill="#F0F5FE" transform="translate(0,0)"/>
<path d="M0 0 C1.00572556 -0.0076664 1.00572556 -0.0076664 2.0317688 -0.01548767 C4.24425232 -0.02936528 6.45642348 -0.02842766 8.66894531 -0.02612305 C10.2134818 -0.03001236 11.75801722 -0.03434752 13.30255127 -0.03910828 C16.54060327 -0.04656755 19.77854626 -0.04628236 23.01660156 -0.04101562 C27.1501319 -0.03523602 31.28321196 -0.05211648 35.41666794 -0.0753603 C38.60816016 -0.09015451 41.79954554 -0.09096139 44.99106598 -0.08785057 C46.51397846 -0.08836142 48.03689729 -0.09355439 49.55977631 -0.10366249 C66.58051853 -0.20273367 66.58051853 -0.20273367 73.27050781 4.7824707 C73.71652344 5.31614258 74.16253906 5.84981445 74.62207031 6.3996582 C75.08355469 6.91786133 75.54503906 7.43606445 76.02050781 7.9699707 C79.66006236 14.80862415 79.52363997 22.66117039 79.44238281 30.21606445 C79.43955292 31.22434799 79.43672302 32.23263153 79.43380737 33.27146912 C79.42270208 36.46015803 79.39761576 39.64855562 79.37207031 42.8371582 C79.36202803 45.01228433 79.35290437 47.1874149 79.34472656 49.36254883 C79.32279447 54.666683 79.28941443 59.97064978 79.24707031 65.2746582 C79.85570923 65.26799637 80.46434814 65.26133453 81.09143066 65.25447083 C87.45087377 65.18787766 93.81021709 65.14275831 100.16992188 65.10986328 C102.54040554 65.09481721 104.91086156 65.07437547 107.28125 65.04833984 C110.69700971 65.01177315 114.11239993 64.99488952 117.52832031 64.98168945 C118.58071899 64.9662056 119.63311768 64.95072174 120.71740723 64.93476868 C128.16503253 64.93308183 133.50744265 66.06487822 139.99707031 69.8996582 C147.40902319 77.72338624 146.83957652 87.48056265 146.77832031 97.62231445 C146.78102016 99.20454649 146.78490666 100.78677689 146.78991699 102.3690033 C146.79578724 105.6714572 146.78732866 108.97347592 146.76855469 112.27587891 C146.7457473 116.49127556 146.75891448 120.70565429 146.78284454 124.92101383 C146.79735401 128.18374695 146.79267346 131.44624186 146.78233337 134.70898247 C146.77968124 136.26258912 146.7828821 137.816218 146.79225159 139.36979866 C146.86317284 154.42896962 146.86317284 154.42896962 142.24707031 161.2746582 C137.22329906 166.29842945 131.75637114 168.42368234 124.77075195 168.61523438 C122.64951752 168.61476339 120.52824285 168.59805171 118.40722656 168.56762695 C117.2851329 168.56338211 116.16303925 168.55913727 115.00694275 168.55476379 C111.44090264 168.53803917 107.87543816 168.50039743 104.30957031 168.4621582 C101.8844483 168.44710338 99.45931737 168.43341637 97.03417969 168.42114258 C91.10494851 168.38815598 85.17605055 168.33801828 79.24707031 168.2746582 C79.25595276 168.86632782 79.26483521 169.45799744 79.27398682 170.06759644 C79.36296715 176.26509877 79.42301344 182.46241756 79.46679688 188.66040039 C79.48682448 190.96874369 79.5140547 193.27703682 79.54882812 195.58520508 C79.59773625 198.91671177 79.62012842 202.24754358 79.63769531 205.5793457 C79.65834045 206.59954803 79.6789856 207.61975037 79.70025635 208.67086792 C79.70235041 215.46520116 78.71008063 221.33076484 75.24707031 227.2746582 C70.16359356 232.31379225 65.24893812 233.39788869 58.30053711 233.45166016 C57.59772614 233.45823135 56.89491516 233.46480255 56.17080688 233.47157288 C53.84596648 233.49127612 51.52119058 233.50296165 49.19628906 233.51293945 C48.00358367 233.51905274 48.00358367 233.51905274 46.78678322 233.52528954 C42.57831712 233.54613739 38.3698835 233.56044476 34.16137695 233.56982422 C29.82017877 233.58088731 25.47949335 233.6152893 21.13847637 233.65499592 C17.79524294 233.68117045 14.45213158 233.68951676 11.1088047 233.6931057 C9.50885364 233.69796936 7.90890796 233.70957715 6.30905724 233.72814369 C4.06622304 233.75255477 1.82471414 233.75156737 -0.41821289 233.74462891 C-1.69267776 233.75049515 -2.96714264 233.75636139 -4.28022766 233.7624054 C-9.7159511 232.99894835 -12.74566524 230.30481502 -16.50292969 226.4621582 C-21.25192137 219.73441998 -21.029302 213.05220548 -20.94824219 205.09106445 C-20.94541229 204.03555893 -20.9425824 202.98005341 -20.93966675 201.89256287 C-20.92852384 198.54064316 -20.90342993 195.18899636 -20.87792969 191.8371582 C-20.86789228 189.55656312 -20.85876776 187.27596382 -20.85058594 184.99536133 C-20.82860381 179.42170142 -20.79518506 173.84819932 -20.75292969 168.2746582 C-21.37187607 168.28354065 -21.99082245 168.2924231 -22.62852478 168.30157471 C-29.10162064 168.39043574 -35.5745417 168.45055273 -42.0480957 168.49438477 C-44.46027674 168.51443373 -46.87240958 168.54168013 -49.28442383 168.57641602 C-52.76232842 168.62522871 -56.2395874 168.64769503 -59.71777344 168.6652832 C-60.78688461 168.68592834 -61.85599579 168.70657349 -62.95750427 168.72784424 C-70.18523512 168.7299843 -76.70413654 167.790618 -82.33848572 162.89776611 C-87.08989298 157.63266566 -88.00062073 152.07960614 -88.04345703 145.20288086 C-88.05017426 144.52235153 -88.05689148 143.8418222 -88.06381226 143.14067078 C-88.08270107 140.90661172 -88.08671167 138.67285449 -88.08886719 136.4387207 C-88.09530113 134.8746224 -88.10202993 133.31052528 -88.10903931 131.74642944 C-88.12098902 128.47325858 -88.12472248 125.20019308 -88.12353516 121.92700195 C-88.12333202 117.7485833 -88.15063844 113.57084517 -88.18507957 109.39258766 C-88.20739972 106.16334984 -88.21137115 102.93427454 -88.2103157 99.7049675 C-88.2126638 98.16529367 -88.22144247 96.62561482 -88.23698044 95.08601761 C-88.39134682 78.2120176 -88.39134682 78.2120176 -82.34091187 71.77163696 C-77.77729474 67.66723912 -73.47746192 66.01809114 -67.41186523 66.04760742 C-65.85081306 66.04783401 -65.85081306 66.04783401 -64.25822449 66.04806519 C-62.59077934 66.06354904 -62.59077934 66.06354904 -60.88964844 66.0793457 C-59.74252884 66.0821756 -58.59540924 66.08500549 -57.41352844 66.08792114 C-53.75572201 66.09910124 -50.09816191 66.12420225 -46.44042969 66.1496582 C-43.95801135 66.15969079 -41.47558917 66.16881616 -38.99316406 66.17700195 C-32.91300213 66.1990335 -26.83298351 66.23248973 -20.75292969 66.2746582 C-20.76292244 65.36169983 -20.76292244 65.36169983 -20.77311707 64.43029785 C-20.83971023 58.07085475 -20.88482958 51.71151142 -20.91772461 45.35180664 C-20.93277068 42.98132297 -20.95321242 40.61086695 -20.97924805 38.24047852 C-21.01581474 34.8247188 -21.03269837 31.40932858 -21.04589844 27.9934082 C-21.06138229 26.94100952 -21.07686615 25.88861084 -21.09281921 24.80432129 C-21.09437392 17.94010189 -20.64507012 11.75059497 -16.06933594 6.2512207 C-15.49054688 5.80520508 -14.91175781 5.35918945 -14.31542969 4.8996582 C-13.73921875 4.43817383 -13.16300781 3.97668945 -12.56933594 3.5012207 C-8.25631266 0.58877058 -5.26629321 0.020044 0 0 Z " fill="#E13554" transform="translate(212.7529296875,68.725341796875)"/>
<path d="M0 0 C3.54778652 4.35870916 2.5700259 9.28113397 2.1875 14.6875 C2.78175781 14.66655273 3.37601563 14.64560547 3.98828125 14.62402344 C6.72117705 14.54008146 9.45380057 14.48859719 12.1875 14.4375 C13.12207031 14.40398437 14.05664062 14.37046875 15.01953125 14.3359375 C21.06884176 14.25133176 26.37807989 14.7055358 31.1875 18.6875 C34.7120679 23.17838814 35.69037333 26.10807715 35.70507812 31.79101562 C35.7120874 32.47475754 35.71909668 33.15849945 35.72631836 33.86296082 C35.74382061 36.10697918 35.73230483 38.34972043 35.71875 40.59375 C35.72144719 42.16264079 35.72533149 43.73152995 35.73034668 45.30041504 C35.73623115 48.58211241 35.72771321 51.86337309 35.70898438 55.14501953 C35.68619488 59.34164441 35.69932369 63.53724594 35.72327423 67.73383331 C35.73776102 70.97161504 35.73311316 74.20915602 35.72276306 77.44694519 C35.7201037 78.99383161 35.72333762 80.54074022 35.73268127 82.08760071 C35.74289521 84.25364684 35.72728178 86.41805926 35.70507812 88.58398438 C35.70189575 89.81387085 35.69871338 91.04375732 35.69543457 92.31091309 C34.88211514 97.71760108 32.50659652 100.59822202 28.35179138 104.02915955 C24.78017539 105.90097051 22.56958544 106.19910198 18.55883789 106.22094727 C16.61135399 106.24470177 16.61135399 106.24470177 14.62452698 106.26893616 C13.21973306 106.2650942 11.81494197 106.26005488 10.41015625 106.25390625 C8.95576074 106.25914693 7.50136862 106.26542504 6.04698181 106.27268982 C3.00487224 106.28307444 -0.03676902 106.27856149 -3.07885742 106.26391602 C-6.96393975 106.24673663 -10.84754186 106.27022068 -14.73245907 106.30540562 C-17.73439707 106.32744143 -20.73598428 106.32592334 -23.73797798 106.3176403 C-25.16961859 106.31682403 -26.60128579 106.32362532 -28.03285027 106.33841133 C-40.56386423 106.44800446 -40.56386423 106.44800446 -45.05688477 103.58569336 C-52.08432686 96.1946448 -51.25747385 88.19709728 -51.2109375 78.55859375 C-51.21296126 77.08081418 -51.21587521 75.60303558 -51.21963501 74.1252594 C-51.22404281 71.03791739 -51.2176766 67.95083686 -51.20361328 64.86352539 C-51.18650696 60.91705525 -51.19638107 56.97119664 -51.21433067 53.0247488 C-51.22519771 49.97658217 -51.22170912 46.92855934 -51.2139473 43.88038826 C-51.21195412 42.42560821 -51.21437339 40.97081486 -51.22138596 39.51605034 C-51.22904946 37.48002262 -51.21528776 35.44394875 -51.20068359 33.40795898 C-51.19829681 32.25214828 -51.19591003 31.09633759 -51.19345093 29.90550232 C-50.61649589 25.03179674 -48.75946083 20.95577928 -44.875 17.875 C-40.66563939 14.86831385 -37.70700626 14.56020636 -32.609375 14.58984375 C-31.6296875 14.59306641 -30.65 14.59628906 -29.640625 14.59960938 C-28.62484375 14.60798828 -27.6090625 14.61636719 -26.5625 14.625 C-25.015625 14.63176758 -25.015625 14.63176758 -23.4375 14.63867188 C-20.89577427 14.65043912 -18.35416681 14.66687989 -15.8125 14.6875 C-15.85890625 13.78386719 -15.9053125 12.88023437 -15.953125 11.94921875 C-16.00726563 10.17998047 -16.00726563 10.17998047 -16.0625 8.375 C-16.10890625 7.20324219 -16.1553125 6.03148437 -16.203125 4.82421875 C-15.8125 1.6875 -15.8125 1.6875 -13.91796875 -0.18359375 C-8.76343682 -2.94734092 -5.25715292 -2.45333803 0 0 Z " fill="#F1F5FD" transform="translate(249.8125,130.3125)"/>
<path d="M0 0 C41.43801653 0 41.43801653 0 47.875 5.8125 C48.40867187 6.27269531 48.94234375 6.73289063 49.4921875 7.20703125 C54.32984453 12.95958197 54.51931078 18.41219921 54.3515625 25.640625 C53.86837877 30.25771402 52.94139179 32.42263161 50 36 C47.25 37.9375 47.25 37.9375 45 39 C45.53109375 39.3403125 46.0621875 39.680625 46.609375 40.03125 C51.80030675 43.5929112 55.28270932 46.82415339 57 53 C58.09921319 59.98262092 57.08257161 65.67916868 53.61328125 71.8359375 C48.97615449 78.05619955 43.41133431 79.14716642 36 81 C24.12 81 12.24 81 0 81 C0 54.27 0 27.54 0 0 Z " fill="#394158" transform="translate(662,154)"/>
<path d="M0 0 C4.62 0 9.24 0 14 0 C14 27.39 14 54.78 14 83 C9.71 83 5.42 83 1 83 C0.505 79.04 0.505 79.04 0 75 C-0.66 75.7425 -1.32 76.485 -2 77.25 C-7.2168233 82.33640272 -12.12853868 84.25267225 -19.4375 84.5 C-27.7895519 84.21033346 -34.26089831 81.47783015 -40.4296875 75.83984375 C-47.06196223 68.0691935 -48.38495909 59.23237528 -48.2734375 49.3515625 C-47.55155168 40.50330487 -43.36547254 33.99103298 -37 28 C-30.1701095 22.70335023 -23.52573726 20.97491136 -15 22 C-8.97526412 23.67449679 -5.48221485 25.51778515 -1 30 C-0.67 20.1 -0.34 10.2 0 0 Z " fill="#3A435A" transform="translate(606,153)"/>
<path d="M0 0 C5.61 0 11.22 0 17 0 C17.75023437 1.51207031 18.50046875 3.02414063 19.2734375 4.58203125 C24.73276288 15.55624311 30.22373355 26.50047364 36.05224609 37.28442383 C39 42.78969821 39 42.78969821 39 45 C39.66 45 40.32 45 41 45 C41.2357373 44.19804199 41.47147461 43.39608398 41.71435547 42.56982422 C43.3130904 38.13064795 45.39761726 34.06443765 47.5703125 29.8828125 C48.0114035 29.02565643 48.45249451 28.16850037 48.9069519 27.28536987 C50.30895938 24.56315757 51.71688297 21.84405618 53.125 19.125 C54.07981995 17.27364006 55.03425133 15.42207967 55.98828125 13.5703125 C58.32102764 9.04454138 60.65908272 4.52154983 63 0 C68.28 0 73.56 0 79 0 C79 26.73 79 53.46 79 81 C74.71 81 70.42 81 66 81 C65.67 63.18 65.34 45.36 65 27 C61.04 34.59 57.08 42.18 53 50 C50.00485137 55.66938848 47.00946197 61.33825968 44 67 C41.36 67 38.72 67 36 67 C34.18556688 63.6885556 32.37385332 60.37562989 30.5625 57.0625 C30.06556641 56.15564453 29.56863281 55.24878906 29.05664062 54.31445312 C24.28673855 45.58463235 19.65603815 36.79473874 15 28 C14.67 45.49 14.34 62.98 14 81 C9.38 81 4.76 81 0 81 C0 54.27 0 27.54 0 0 Z " fill="#373F56" transform="translate(402,155)"/>
<path d="M0 0 C6.74528354 4.61654386 12.00085701 11.41716943 13.5546875 19.55859375 C14.78758216 30.51979786 13.65527689 39.27119605 6.6796875 48.09375 C0.92595276 54.21949345 -6.47081841 57.24485347 -14.73828125 58.01953125 C-24.56245358 58.29524657 -32.21142616 55.60955058 -39.4375 48.8515625 C-46.73839537 40.25273018 -48.01404405 30.69377201 -47.1953125 19.78125 C-45.5609915 12.56463979 -41.82728742 6.57215494 -36.1953125 1.78125 C-24.70517491 -5.33590764 -12.13781391 -6.7384305 0 0 Z " fill="#384057" transform="translate(842.1953125,179.21875)"/>
<path d="M0 0 C7.67629161 6.43495821 11.56841341 13.75677686 12.98828125 23.64453125 C13.42202527 31.99036442 10.08230974 41.08983682 4.6640625 47.38671875 C-3.18869995 53.81458479 -11.38687515 57.07181302 -21.5703125 56.73046875 C-30.10578662 55.66956236 -36.5185446 51.56769871 -42.3359375 45.38671875 C-48.98687935 36.81050426 -49.6371407 26.85698292 -48.3359375 16.38671875 C-47.16829141 12.62792176 -45.57919728 9.60615209 -43.3359375 6.38671875 C-42.6965625 5.43796875 -42.0571875 4.48921875 -41.3984375 3.51171875 C-30.45356587 -7.76481566 -12.76432362 -8.8154944 0 0 Z " fill="#384057" transform="translate(775.3359375,180.61328125)"/>
<path d="M0 0 C7.6701234 5.39215442 11.48139588 11.69424362 13.765625 20.7109375 C13.765625 24.0109375 13.765625 27.3109375 13.765625 30.7109375 C-1.084375 30.7109375 -15.934375 30.7109375 -31.234375 30.7109375 C-27.05677698 39.20820044 -27.05677698 39.20820044 -19.859375 43.9609375 C-15.88602518 45.0961803 -12.234403 45.63757521 -8.37109375 43.84765625 C-6.6423254 42.82964491 -4.93746343 41.77135105 -3.234375 40.7109375 C0.50958732 39.19118958 2.84489571 40.20636528 6.515625 41.6484375 C7.99289062 42.21884766 7.99289062 42.21884766 9.5 42.80078125 C10.24765625 43.10113281 10.9953125 43.40148437 11.765625 43.7109375 C10.44501158 47.77060098 8.95856329 49.80928941 5.578125 52.3984375 C4.47404297 53.27048828 4.47404297 53.27048828 3.34765625 54.16015625 C-4.66414758 58.97208684 -15.25377111 59.10509152 -24.18359375 57.0234375 C-32.81429789 53.85135635 -38.02244151 48.91226891 -42.2890625 40.859375 C-45.79235871 32.89733815 -45.64189345 21.35944964 -42.671875 13.2109375 C-38.88828027 5.32512954 -33.49514278 -0.27430807 -25.234375 -3.2890625 C-16.70591977 -5.7954527 -7.66555582 -4.42243605 0 0 Z " fill="#363E56" transform="translate(537.234375,179.2890625)"/>
<path d="M0 0 C4.29 0 8.58 0 13 0 C13.33 15.51 13.66 31.02 14 47 C23.15214299 37.01613634 23.15214299 37.01613634 32.22265625 26.9609375 C35.80332727 23.01039496 35.80332727 23.01039496 39.6953125 22.8046875 C41.17200108 22.817991 42.64862358 22.84185165 44.125 22.875 C44.87910156 22.88402344 45.63320313 22.89304688 46.41015625 22.90234375 C48.27357254 22.9259313 50.13682593 22.96180281 52 23 C47.81739002 28.8625268 43.23699263 34.12465599 38.25 39.3125 C36.91992746 40.70256621 35.59171992 42.09441996 34.265625 43.48828125 C33.68586914 44.09196533 33.10611328 44.69564941 32.50878906 45.31762695 C30.80770955 47.13398867 30.80770955 47.13398867 29 50 C29.81082031 50.99257812 30.62164063 51.98515625 31.45703125 53.0078125 C37.10034241 59.92746452 42.72281526 66.86205292 48.25 73.875 C48.71510986 74.46297363 49.18021973 75.05094727 49.65942383 75.65673828 C52.87888392 79.75776783 52.87888392 79.75776783 54 82 C40.53948757 83.82400921 40.53948757 83.82400921 34.76953125 79.6796875 C32.33731925 77.17700681 30.22132073 74.45096454 28.17871094 71.625 C26.42735152 69.21053266 24.5160171 66.9307755 22.625 64.625 C22.03976562 63.87476563 21.45453125 63.12453125 20.8515625 62.3515625 C18.62399986 59.52246396 16.3051825 56.766219 14 54 C13.67 63.24 13.34 72.48 13 82 C8.71 82 4.42 82 0 82 C0 54.94 0 27.88 0 0 Z " fill="#2D354C" transform="translate(865,153)"/>
<path d="M0 0 C4.99915096 2.24099871 7.29559051 5.29232421 10 10 C11.67490313 15.0247094 12.10698227 20.36095427 10.0234375 25.328125 C7.13883342 30.10630353 4.38736625 33.20421125 -1 35 C-7.22187421 35.5079081 -12.74503901 35.75354356 -18 32 C-22.5386106 27.47375619 -24.16271516 23.68920997 -24.375 17.3125 C-24.32513314 11.42821046 -23.15837692 7.2610529 -19 3 C-13.2356199 -1.33834878 -6.90995911 -0.72266317 0 0 Z " fill="#F0F5FD" transform="translate(596,189)"/>
<path d="M0 0 C4.5375284 3.9043849 6.77961216 7.32329165 7.625 13.25 C8.00130493 19.21712095 6.12940606 23.12478046 2.875 28.0625 C-0.70767917 31.74754143 -4.1929997 33.46278911 -9.3125 33.6875 C-14.85006991 33.43435395 -18.19716287 31.4531857 -22.0625 27.5 C-26.02659408 21.88420006 -26.79549361 17.49719602 -25.90625 10.77734375 C-24.75132758 5.98289606 -22.42749965 2.90681346 -18.51953125 -0.0390625 C-12.15968338 -3.77118879 -6.45183066 -3.28678166 0 0 Z " fill="#EEF3FC" transform="translate(766.3125,190.6875)"/>
<path d="M0 0 C4.56770417 3.01274105 8.19046399 6.69639197 9.9375 11.9375 C10.47135142 17.90226294 10.49020149 22.89495595 6.9375 27.9375 C2.84742719 31.96129848 -0.41957432 35.05958233 -6.3125 35.25 C-10.99213108 35.18250532 -13.4612754 34.04764852 -17.0625 30.9375 C-22.133919 25.67366944 -23.38411567 21.61074502 -23.26953125 14.43359375 C-22.82587383 9.08459202 -20.42481769 6.07903887 -16.5625 2.625 C-11.50071544 -1.60425421 -6.2529972 -2.16940719 0 0 Z " fill="#F0F5FD" transform="translate(832.0625,189.0625)"/>
<path d="M0 0 C3.5 0.875 3.5 0.875 5.5 2.5625 C6.91517759 5.83509818 6.47828717 7.44421722 5.5 10.875 C3.76732474 13.3605077 1.6985425 15.44859838 -0.44140625 17.5859375 C-1.04250717 18.19893707 -1.64360809 18.81193665 -2.26292419 19.44351196 C-3.53513995 20.73223504 -4.81396118 22.01446639 -6.09887695 23.29052734 C-8.05492368 25.2424397 -9.97376399 27.22640217 -11.89257812 29.21484375 C-13.13590367 30.46564974 -14.38128201 31.71441923 -15.62890625 32.9609375 C-16.19694473 33.55458099 -16.76498322 34.14822449 -17.35023499 34.75985718 C-20.38452593 37.70948644 -22.42207222 39.24300751 -26.7434082 39.35229492 C-33.2357508 38.52740834 -36.90357522 34.24755021 -41.5 29.875 C-42.17160156 29.24464844 -42.84320313 28.61429688 -43.53515625 27.96484375 C-46.44510462 24.94482641 -47.41858196 23.36350822 -48.125 19.125 C-47.5 15.875 -47.5 15.875 -45.9375 13.875 C-42.25656225 12.36487169 -40.30685606 12.71358629 -36.5 13.875 C-34.53855638 15.5574098 -32.85852749 17.32139281 -31.17578125 19.28125 C-29.2069319 21.15372211 -28.19281518 21.61389542 -25.5 21.875 C-23.57793213 20.66091376 -23.57793213 20.66091376 -21.86328125 18.76171875 C-21.20392578 18.09076172 -20.54457031 17.41980469 -19.86523438 16.72851562 C-18.84913086 15.65633789 -18.84913086 15.65633789 -17.8125 14.5625 C-17.12349609 13.85931641 -16.43449219 13.15613281 -15.72460938 12.43164062 C-12.1966525 8.95877479 -12.1966525 8.95877479 -9.5 4.875 C-8.84 4.875 -8.18 4.875 -7.5 4.875 C-7.17 3.885 -6.84 2.895 -6.5 1.875 C-3.5 -0.125 -3.5 -0.125 0 0 Z " fill="#E02F4C" transform="translate(263.5,175.125)"/>
<path d="M0 0 C3.3 0 6.6 0 10 0 C10.02505615 1.38300293 10.0501123 2.76600586 10.07592773 4.19091797 C10.16990306 9.30852979 10.27014767 14.42600273 10.37231445 19.54345703 C10.41570078 21.76087197 10.45737308 23.97832112 10.49731445 26.19580078 C10.55492754 29.37803472 10.61864764 32.56009584 10.68359375 35.7421875 C10.70030624 36.73805878 10.71701874 37.73393005 10.73423767 38.75997925 C10.75418289 39.68078278 10.77412811 40.6015863 10.79467773 41.55029297 C10.81022202 42.3630368 10.8257663 43.17578064 10.84178162 44.01315308 C10.88102414 46.07438267 10.88102414 46.07438267 12 48 C12.66 48 13.32 48 14 48 C14 48.66 14 49.32 14 50 C12.515 50.495 12.515 50.495 11 51 C10.67 60.57 10.34 70.14 10 80 C6.7 80 3.4 80 0 80 C0 53.6 0 27.2 0 0 Z " fill="#424B65" transform="translate(866,154)"/>
<path d="M0 0 C4.29 0 8.58 0 13 0 C13 18.48 13 36.96 13 56 C8.71 56 4.42 56 0 56 C0 37.52 0 19.04 0 0 Z " fill="#363E54" transform="translate(635,179)"/>
<path d="M0 0 C3.34125 -0.0825 6.6825 -0.165 10.125 -0.25 C11.16672363 -0.28641602 12.20844727 -0.32283203 13.28173828 -0.36035156 C19.18230039 -0.43071795 22.52806305 0.04123614 27 4 C28.73631636 7.47263273 28.60190402 11.21193013 28 15 C25.81840855 17.75569447 24.12822506 19.43588747 21 21 C19.40552536 21.08400529 17.80759455 21.10727467 16.2109375 21.09765625 C15.36321777 21.09515869 14.51549805 21.09266113 13.64208984 21.09008789 C12.5639502 21.08098389 11.48581055 21.07187988 10.375 21.0625 C6.95125 21.041875 3.5275 21.02125 0 21 C0 14.07 0 7.14 0 0 Z " fill="#EFF4FD" transform="translate(676,201)"/>
<path d="M0 0 C2.866875 -0.061875 5.73375 -0.12375 8.6875 -0.1875 C10.02880981 -0.22846802 10.02880981 -0.22846802 11.3972168 -0.27026367 C16.10305502 -0.31934329 19.18440656 -0.06715011 23 3 C25.16232881 5.75883331 25.93942763 7.51542103 26.375 11 C25.9437477 14.45001843 25.12848485 16.26337663 23 19 C20.06218279 20.81629095 17.88179313 21.24164585 14.453125 21.1953125 C13.69161133 21.19031738 12.93009766 21.18532227 12.14550781 21.18017578 C10.71223145 21.15286377 10.71223145 21.15286377 9.25 21.125 C4.67125 21.063125 4.67125 21.063125 0 21 C0 14.07 0 7.14 0 0 Z " fill="#EFF4FC" transform="translate(676,167)"/>
<path d="M0 0 C3.12236116 2.59214889 5.31172009 4.9375258 6.86328125 8.734375 C6.86328125 9.724375 6.86328125 10.714375 6.86328125 11.734375 C-4.02671875 11.734375 -14.91671875 11.734375 -26.13671875 11.734375 C-22.74148297 3.81215818 -22.74148297 3.81215818 -19.69921875 1.359375 C-18.83490234 0.63621094 -18.83490234 0.63621094 -17.953125 -0.1015625 C-12.75386806 -3.43355942 -5.23698738 -3.10198156 0 0 Z " fill="#F0F5FC" transform="translate(531.13671875,189.265625)"/>
<path d="M0 0 C-0.66 0 -1.32 0 -2 0 C-2 0.66 -2 1.32 -2 2 C-3.36125 2.556875 -3.36125 2.556875 -4.75 3.125 C-8.45705203 5.26368386 -9.77123262 7.41805243 -12 11 C-12.66 11 -13.32 11 -14 11 C-13.99555878 11.65954681 -13.99111755 12.31909363 -13.98654175 12.99862671 C-13.94240223 19.84378906 -13.91217274 26.68891121 -13.89013672 33.53417969 C-13.88005962 36.09116253 -13.86639774 38.64813379 -13.84912109 41.20507812 C-13.82494783 44.87372692 -13.81353415 48.54222379 -13.8046875 52.2109375 C-13.79436493 53.35992523 -13.78404236 54.50891296 -13.77340698 55.69271851 C-13.77325592 56.7536673 -13.77310486 57.81461609 -13.77294922 58.90771484 C-13.768508 59.84481293 -13.76406677 60.78191101 -13.75949097 61.74740601 C-14 64 -14 64 -16 66 C-18.25018311 66.2515564 -18.25018311 66.2515564 -21.08886719 66.25537109 C-22.15047058 66.26233002 -23.21207397 66.26928894 -24.30584717 66.27645874 C-26.03390594 66.27496323 -26.03390594 66.27496323 -27.796875 66.2734375 C-30.2239629 66.29373185 -32.6510462 66.31458273 -35.078125 66.3359375 C-38.91410187 66.35852518 -42.74989723 66.37499984 -46.5859375 66.38085938 C-50.28158625 66.39038424 -53.97641086 66.42417187 -57.671875 66.4609375 C-58.81581726 66.45589203 -59.95975952 66.45084656 -61.1383667 66.44564819 C-67.39488329 66.5228971 -71.25488542 66.77298457 -76 71 C-78.79883288 73.99874951 -79.84542128 77.09219511 -81 81 C-81.33 81 -81.66 81 -82 81 C-81.7771473 75.54010896 -80.47207728 72.72941733 -76.9609375 68.578125 C-70.48663864 63.36773309 -63.9036718 63.59508561 -55.94140625 63.70703125 C-54.79711655 63.71127609 -53.65282684 63.71552094 -52.47386169 63.71989441 C-48.83649689 63.73662196 -45.19969598 63.77426435 -41.5625 63.8125 C-39.08920074 63.82755444 -36.61589275 63.84124152 -34.14257812 63.85351562 C-28.09486126 63.88650614 -22.04747093 63.93664687 -16 64 C-16.00999275 63.08704163 -16.00999275 63.08704163 -16.02018738 62.15563965 C-16.08678054 55.79619655 -16.1318999 49.43685322 -16.16479492 43.07714844 C-16.17984099 40.70666477 -16.20028273 38.33620875 -16.22631836 35.96582031 C-16.26288506 32.5500606 -16.27976868 29.13467038 -16.29296875 25.71875 C-16.30845261 24.66635132 -16.32393646 23.61395264 -16.33988953 22.52966309 C-16.34144894 15.64465693 -15.90626118 9.41113506 -11.24609375 3.94140625 C-10.35083984 3.25884766 -10.35083984 3.25884766 -9.4375 2.5625 C-8.53837891 1.85287109 -8.53837891 1.85287109 -7.62109375 1.12890625 C-4.62162753 -0.95987866 -3.46325565 -1.03897669 0 0 Z " fill="#E31127" transform="translate(208,71)"/>
<path d="M0 0 C4.62 0 9.24 0 14 0 C14 27.39 14 54.78 14 83 C9.71 83 5.42 83 1 83 C1 80.03 1 77.06 1 74 C1.33 74 1.66 74 2 74 C2 76.31 2 78.62 2 81 C5.3 81 8.6 81 12 81 C12 54.6 12 28.2 12 1 C8.7 1 5.4 1 2 1 C2 11.23 2 21.46 2 32 C0.68 32 -0.64 32 -2 32 C-2 31.01 -2 30.02 -2 29 C-1.67 29.33 -1.34 29.66 -1 30 C-0.67 20.1 -0.34 10.2 0 0 Z " fill="#19243D" transform="translate(606,153)"/>
<path d="M0 0 C3.18639792 2.77788536 3.91137036 4.36851383 4.5 8.5625 C3.9257958 12.51015385 3.11700276 13.61640965 0 16 C-2.85324437 17.42662219 -4.83454549 17.31033868 -8 17 C-11.74785043 14.91786087 -12.79482295 13.7052961 -14 9.5625 C-14 5.5815106 -13.5177436 4.03865607 -11 1 C-7.44724114 -1.79145339 -4.20120319 -1.12532228 0 0 Z " fill="#343C53" transform="translate(646,153)"/>
<path d="M0 0 C2.64590014 -0.02684679 5.29153096 -0.04676357 7.9375 -0.0625 C8.69224609 -0.07087891 9.44699219 -0.07925781 10.22460938 -0.08789062 C12.14994313 -0.09652441 14.07535581 -0.05224333 16 0 C17.74292177 1.74292177 17.11980303 4.00623495 17.12442017 6.32824707 C17.12082489 7.09141235 17.11722961 7.85457764 17.11352539 8.64086914 C17.11367142 9.44080795 17.11381744 10.24074677 17.1139679 11.06492615 C17.11326855 13.72169665 17.10547518 16.37839793 17.09765625 19.03515625 C17.09579215 20.87218691 17.09436821 22.70921806 17.09336853 24.54624939 C17.08954275 29.39109662 17.07971196 34.23591408 17.06866455 39.08074951 C17.05845172 44.02062578 17.05387119 48.96050685 17.04882812 53.90039062 C17.03808974 63.60027353 17.0210126 73.30013429 17 83 C16.01 83.495 16.01 83.495 15 84 C15 56.94 15 29.88 15 2 C9.72 2 4.44 2 -1 2 C-0.67 1.34 -0.34 0.68 0 0 Z " fill="#C4CAD7" transform="translate(466,153)"/>
<path d="M0 0 C1.04092804 0.02009628 2.08185608 0.04019257 3.15432739 0.06089783 C4.84499832 0.10145042 4.84499832 0.10145042 6.56982422 0.14282227 C7.72118866 0.16643326 8.8725531 0.19004425 10.05880737 0.21437073 C13.74749699 0.29113441 17.43598333 0.37510418 21.12451172 0.45922852 C23.62059542 0.51243647 26.11668913 0.56517694 28.61279297 0.61743164 C34.74182584 0.74676672 40.87070693 0.8820234 46.99951172 1.02172852 C46.99951172 1.35172852 46.99951172 1.68172852 46.99951172 2.02172852 C30.16951172 2.02172852 13.33951172 2.02172852 -4.00048828 2.02172852 C-4.00048828 18.19172852 -4.00048828 34.36172852 -4.00048828 51.02172852 C-5.48548828 51.51672852 -5.48548828 51.51672852 -7.00048828 52.02172852 C-7.00048828 35.19172852 -7.00048828 18.36172852 -7.00048828 1.02172852 C-4.47612185 -0.2404547 -2.8227824 -0.06136483 0 0 Z " fill="#E54A68" transform="translate(296.00048828125,234.978271484375)"/>
<path d="M0 0 C0.66 0 1.32 0 2 0 C2 10.23 2 20.46 2 31 C0.68 31 -0.64 31 -2 31 C-2 30.01 -2 29.02 -2 28 C-1.67 28.33 -1.34 28.66 -1 29 C-0.67 19.43 -0.34 9.86 0 0 Z " fill="#15213D" transform="translate(606,154)"/>
<path d="M0 0 C0.62003906 0.2165625 1.24007812 0.433125 1.87890625 0.65625 C13.00423571 4.15417018 24.16556827 4.56186599 35 0 C30.95008733 4.63403469 25.16866379 5.6219208 19.25 6.328125 C12.57325717 6.59367727 6.85168621 5.29909881 1 2 C0.67 1.34 0.34 0.68 0 0 Z " fill="#181E31" transform="translate(808,231)"/>
<path d="M0 0 C-1.11328125 1.51953125 -1.11328125 1.51953125 -3 3 C-5.85546875 3.01171875 -5.85546875 3.01171875 -9.1875 2.6875 C-13.19433259 2.55752445 -15.27549876 2.51305777 -18.6328125 4.76953125 C-20.58049161 6.7625864 -22.34487951 8.75983692 -24 11 C-24 7.36581728 -23.31027425 6.54599259 -21 3.8125 C-15.10413438 -2.02996104 -7.68745128 -0.67171904 0 0 Z " fill="#192135" transform="translate(917,176)"/>
<path d="M0 0 C0.33 0 0.66 0 1 0 C1.33 15.51 1.66 31.02 2 47 C1.01 47 0.02 47 -1 47 C-0.67 31.49 -0.34 15.98 0 0 Z " fill="#E92B4D" transform="translate(291,88)"/>
<path d="M0 0 C-0.66 0 -1.32 0 -2 0 C-2 0.66 -2 1.32 -2 2 C-2.9075 2.37125 -3.815 2.7425 -4.75 3.125 C-8.45387526 5.26185111 -9.82830862 7.38051437 -12 11 C-12.33 11 -12.66 11 -13 11 C-13.4375 8.875 -13.4375 8.875 -13 6 C-9.20566131 1.83718222 -5.68882951 -1.70664885 0 0 Z " fill="#E1243D" transform="translate(208,71)"/>
<path d="M0 0 C0.70576172 0.52400391 0.70576172 0.52400391 1.42578125 1.05859375 C2.35970703 1.74115234 2.35970703 1.74115234 3.3125 2.4375 C4.23482422 3.11619141 4.23482422 3.11619141 5.17578125 3.80859375 C8.66668762 6.08852189 11.63690371 6.11015407 15.6875 6.0625 C16.68136719 6.05347656 17.67523437 6.04445312 18.69921875 6.03515625 C19.45847656 6.02355469 20.21773437 6.01195312 21 6 C20.67 6.66 20.34 7.32 20 8 C7.51464975 8.76027167 7.51464975 8.76027167 3.9921875 6.9921875 C1.86828044 4.86828044 0.94470973 2.83412918 0 0 Z " fill="#161A2A" transform="translate(743,217)"/>
<path d="M0 0 C2.375 2.625 2.375 2.625 4 5 C3.67 5.66 3.34 6.32 3 7 C1.8553125 5.824375 1.8553125 5.824375 0.6875 4.625 C-3.56866561 1.00469528 -8.61001987 0.6425777 -14 0 C-14 -0.33 -14 -0.66 -14 -1 C-8.70898029 -1.91224478 -4.96676304 -2.48338152 0 0 Z " fill="#1C2235" transform="translate(532,187)"/>
<path d="M0 0 C0.99 0.66 1.98 1.32 3 2 C3 2.66 3 3.32 3 4 C-0.96 4 -4.92 4 -9 4 C-9.33 3.34 -9.66 2.68 -10 2 C-6.7 2 -3.4 2 0 2 C0 1.34 0 0.68 0 0 Z " fill="#3D4862" transform="translate(913,230)"/>
<path d="M0 0 C-1.38188453 3.21043882 -2.92421903 5.04936365 -5.625 7.25 C-6.57246094 8.03117188 -6.57246094 8.03117188 -7.5390625 8.828125 C-8.02117187 9.21484375 -8.50328125 9.6015625 -9 10 C-9 7 -9 7 -7.5390625 5.17578125 C-6.90742188 4.56089844 -6.27578125 3.94601563 -5.625 3.3125 C-4.68527344 2.37857422 -4.68527344 2.37857422 -3.7265625 1.42578125 C-2 0 -2 0 0 0 Z " fill="#F1D6DE" transform="translate(254,180)"/>
<path d="M0 0 C0.33 0.66 0.66 1.32 1 2 C0.34 1.67 -0.32 1.34 -1 1 C-0.67 0.67 -0.34 0.34 0 0 Z M-3 2 C-2.34 2.33 -1.68 2.66 -1 3 C-2.75 5 -2.75 5 -5 7 C-6.32 7 -7.64 7 -9 7 C-9 6.34 -9 5.68 -9 5 C-7.03533587 3.93224776 -5.03144641 2.93446535 -3 2 Z " fill="#F4EFF5" transform="translate(287,296)"/>
<path d="M0 0 C2.25245881 2.68841859 3.88213958 4.64641875 5 8 C3.35 8 1.7 8 0 8 C0 5.36 0 2.72 0 0 Z " fill="#E7EDF3" transform="translate(416,181)"/>
<path d="M0 0 C0.33 0 0.66 0 1 0 C1 2.64 1 5.28 1 8 C-0.32 8 -1.64 8 -3 8 C-3 7.01 -3 6.02 -3 5 C-2.67 5.33 -2.34 5.66 -2 6 C-1.34 4.02 -0.68 2.04 0 0 Z " fill="#212A45" transform="translate(607,177)"/>
<path d="M0 0 C3.67230705 3.07999946 4.56802365 5.2482602 5 10 C4.34 8.68 3.68 7.36 3 6 C2.34 6 1.68 6 1 6 C0.67 4.02 0.34 2.04 0 0 Z " fill="#1B2134" transform="translate(544,187)"/>
</svg>
