<?xml version="1.0" encoding="UTF-8"?>
<svg version="1.1" xmlns="http://www.w3.org/2000/svg" width="1024" height="608">
<path d="M0 0 C337.92 0 675.84 0 1024 0 C1024 200.64 1024 401.28 1024 608 C686.08 608 348.16 608 0 608 C0 407.36 0 206.72 0 0 Z " fill="#FEFEFE" transform="translate(0,0)"/>
<path d="M0 0 C0.72071182 -0.0065712 1.44142365 -0.0131424 2.18397522 -0.01991272 C4.56894031 -0.03962121 6.95384247 -0.05130357 9.33886719 -0.0612793 C10.15482109 -0.06535482 10.97077499 -0.06943035 11.81145477 -0.07362938 C16.1312993 -0.09448092 20.45111215 -0.10878589 24.77099609 -0.11816406 C29.22419063 -0.12921921 33.67688421 -0.16361106 38.12990189 -0.20333576 C41.56153263 -0.22953139 44.99304461 -0.23785855 48.42476654 -0.24144554 C50.06575652 -0.24630487 51.70674142 -0.25790025 53.34763336 -0.27648354 C55.65012334 -0.30093611 57.95132511 -0.29989939 60.25390625 -0.29296875 C61.5616803 -0.29883499 62.86945435 -0.30470123 64.21685791 -0.31074524 C69.63934526 0.41012868 73.30881578 2.19335282 76.80195618 6.58744812 C78.00951296 9.47273476 78.24865744 11.48983842 78.22631836 14.60986328 C78.22609177 15.67058548 78.22586517 16.73130768 78.22563171 17.82417297 C78.21014786 18.95767685 78.194664 20.09118073 78.17871094 21.2590332 C78.17446609 22.42834885 78.17022125 23.59766449 78.16584778 24.80241394 C78.14907503 28.53167895 78.11142411 32.26040067 78.07324219 35.98950195 C78.05819359 38.5200931 78.04450549 41.05069273 78.03222656 43.58129883 C77.99917602 49.78005144 77.94898989 55.97848788 77.88574219 62.17700195 C78.54893463 62.16811951 79.21212708 62.15923706 79.89541626 62.15008545 C86.80600352 62.0615024 93.71642914 62.0012218 100.62744141 61.95727539 C103.20563306 61.93717632 105.78377923 61.90989254 108.36181641 61.87524414 C112.07042679 61.82665348 115.77843374 61.80401538 119.48730469 61.78637695 C120.63752106 61.76573181 121.78773743 61.74508667 122.97280884 61.72381592 C129.26217661 61.72205759 133.13118438 61.8979992 137.88574219 66.17700195 C141.71042887 70.52923162 142.01507552 74.17200791 142.046875 79.84814453 C142.0518399 80.52169479 142.05680481 81.19524506 142.06192017 81.88920593 C142.07652008 84.11665878 142.08334053 86.34404038 142.08886719 88.5715332 C142.09462092 90.12228904 142.10037863 91.67304485 142.10614014 93.22380066 C142.11664429 96.47618948 142.12249062 99.72855363 142.12597656 102.98095703 C142.13145668 107.14046504 142.15547661 111.29964495 142.18394852 115.45905018 C142.20261008 118.66331421 142.20778239 121.86749981 142.20931244 125.07181358 C142.21233213 126.60476155 142.22033757 128.13770835 142.23349762 129.6706028 C142.25063057 131.81987791 142.24866062 133.96835933 142.2421875 136.11767578 C142.24765594 137.94943108 142.24765594 137.94943108 142.25323486 139.81819153 C141.63275429 145.48926133 139.21604331 149.52331038 134.88574219 153.17700195 C131.89099505 154.175251 129.81228885 154.33024227 126.67993164 154.38232422 C125.61905838 154.40226944 124.55818512 154.42221466 123.46516418 154.44276428 C121.74942451 154.46783302 121.74942451 154.46783302 119.99902344 154.4934082 C118.24080513 154.52457985 118.24080513 154.52457985 116.44706726 154.55638123 C112.69751933 154.62184013 108.94790056 154.68074491 105.19824219 154.73950195 C102.65852128 154.78269063 100.11880757 154.82630504 97.57910156 154.87036133 C91.34805696 154.97751782 85.11694167 155.07929115 78.88574219 155.17700195 C78.88209656 155.81513824 78.87845093 156.45327454 78.87469482 157.11074829 C78.83283205 163.76227017 78.76345943 170.41310447 78.67822266 177.06420898 C78.65002523 179.54525877 78.62880464 182.02639818 78.61474609 184.50756836 C78.59330057 188.07753343 78.54663877 191.64642223 78.49511719 195.21606445 C78.49388855 196.32253326 78.49265991 197.42900208 78.49139404 198.56900024 C78.37482001 204.72104887 78.05892132 208.52466581 73.88574219 213.17700195 C68.96257735 216.6592405 65.07880552 217.30524676 59.12280273 217.33813477 C58.4394989 217.34309967 57.75619507 217.34806458 57.05218506 217.35317993 C54.79226675 217.36778099 52.53241866 217.37460048 50.27246094 217.38012695 C48.69928486 217.38588057 47.12610879 217.39163828 45.55293274 217.3973999 C42.25346551 217.40790437 38.95402261 217.4137505 35.65454102 217.41723633 C31.43450092 217.42271664 27.21478418 217.44673687 22.99484539 217.47520828 C19.74425835 217.49386833 16.49374863 217.49904207 13.24311256 217.5005722 C11.68783617 217.50359222 10.13256093 217.51159873 8.57733727 217.52475739 C6.39693264 217.54188717 4.21731057 217.53992112 2.03686523 217.53344727 C0.79793015 217.5370929 -0.44100494 217.54073853 -1.71748352 217.54449463 C-6.64336347 217.01156996 -9.92045507 215.40396588 -13.36425781 211.86450195 C-17.55126191 205.43445995 -17.38317927 199.29446712 -17.30957031 191.87231445 C-17.30674042 190.79319794 -17.30391052 189.71408142 -17.30099487 188.6022644 C-17.28983441 185.16872896 -17.26473711 181.73545805 -17.23925781 178.30200195 C-17.22922268 175.9686724 -17.22009776 173.63533874 -17.21191406 171.30200195 C-17.1899086 165.59357895 -17.15647208 159.88530936 -17.11425781 154.17700195 C-18.1123774 154.18699471 -18.1123774 154.18699471 -19.13066101 154.19718933 C-26.05735441 154.26356874 -32.98395741 154.30881358 -39.91088867 154.34179688 C-42.49588694 154.35688157 -45.08085964 154.37735197 -47.66577148 154.40332031 C-51.38173742 154.43971637 -55.09736489 154.4567318 -58.81347656 154.4699707 C-59.96885422 154.48545456 -61.12423187 154.50093842 -62.31462097 154.51689148 C-63.9357354 154.51723137 -63.9357354 154.51723137 -65.58959961 154.51757812 C-67.01190132 154.52757088 -67.01190132 154.52757088 -68.4629364 154.5377655 C-73.11421226 153.90486947 -75.55682898 151.90475626 -78.36425781 148.23950195 C-80.9851553 143.65293134 -81.24328021 140.15984761 -81.27539062 134.89892578 C-81.28980194 132.99092949 -81.28980194 132.99092949 -81.30450439 131.04438782 C-81.30935403 129.65760478 -81.31363245 128.27081965 -81.31738281 126.8840332 C-81.32021019 126.18181829 -81.32303757 125.47960339 -81.32595062 124.75610924 C-81.34092424 121.03694662 -81.35016404 117.31782258 -81.35449219 113.59863281 C-81.35996113 109.77685764 -81.38396058 105.95544156 -81.41246414 102.13377857 C-81.43119373 99.17816681 -81.43630166 96.22263957 -81.43782806 93.2669735 C-81.44083403 91.85931126 -81.44879217 90.45164976 -81.46201324 89.0440464 C-81.61477954 71.52296102 -81.61477954 71.52296102 -76.79704285 65.54165649 C-71.54331443 60.92475129 -65.24816265 61.53929857 -58.61816406 61.6887207 C-57.42948227 61.69579544 -56.24080048 61.70287018 -55.01609802 61.7101593 C-51.23566616 61.73805085 -47.45673878 61.80078495 -43.67675781 61.86450195 C-41.10711781 61.88959135 -38.53745449 61.91240339 -35.96777344 61.93286133 C-29.68275866 61.98786067 -23.39861575 62.0714368 -17.11425781 62.17700195 C-17.12314026 61.53886566 -17.13202271 60.90072937 -17.14117432 60.24325562 C-17.22977527 53.59219331 -17.29004525 46.94129909 -17.33398438 40.28979492 C-17.35408022 37.80860584 -17.38136165 35.327464 -17.41601562 32.84643555 C-17.46462075 29.27681814 -17.48724754 25.70782779 -17.50488281 22.13793945 C-17.53585052 20.47823624 -17.53585052 20.47823624 -17.56744385 18.78500366 C-17.5692488 12.56809037 -17.26547215 8.9138445 -13.11425781 4.17700195 C-12.59863281 3.57887695 -12.08300781 2.98075195 -11.55175781 2.36450195 C-8.14281709 -0.45157952 -4.19910456 0.03168567 0 0 Z " fill="#E93F48" transform="translate(202.1142578125,184.822998046875)"/>
<path d="M0 0 C1.875 1 1.875 1 3 3 C3 5.64 3 8.28 3 11 C10.92 11 18.84 11 27 11 C27 8.36 27 5.72 27 3 C28.125 1 28.125 1 30 0 C33.08815875 -0.38601984 35.10184376 -0.47901666 37.875 1 C39.70488947 4.25313684 39.18128355 7.31390109 39 11 C39.78503906 10.93039063 40.57007813 10.86078125 41.37890625 10.7890625 C51.03017232 10.29169664 51.03017232 10.29169664 55.1875 13.875 C58.78624589 17.50001411 59.12946277 19.82849325 59.16113281 24.91503906 C59.17074036 26.15682922 59.1803479 27.39861938 59.19024658 28.67803955 C59.19509543 30.04056617 59.19937405 31.40309492 59.203125 32.765625 C59.20887783 34.16086835 59.21463555 35.55611167 59.22039795 36.95135498 C59.23091017 39.88017139 59.23675082 42.80896034 59.24023438 45.73779297 C59.24570801 49.48145406 59.26971038 53.22474939 59.29820633 56.96829605 C59.3168824 59.85259032 59.32204102 62.73679755 59.32357025 65.62114716 C59.32658806 67.00058737 59.33458708 68.38002638 59.34775543 69.75940704 C59.36491168 71.69532511 59.36107709 73.63139426 59.35644531 75.56738281 C59.36191376 77.21713104 59.36191376 77.21713104 59.36749268 78.90020752 C58.75653576 84.05361539 56.61501131 87.96410833 52.625 91.25 C52.06039062 91.72953125 51.49578125 92.2090625 50.9140625 92.703125 C46.81368513 95.48133987 43.14116573 96.25294254 38.23510742 96.29052734 C37.100103 96.30328705 35.96509857 96.31604675 34.79570007 96.32919312 C32.96903557 96.33253159 32.96903557 96.33253159 31.10546875 96.3359375 C29.21348503 96.3459227 29.21348503 96.3459227 27.28327942 96.35610962 C24.61603674 96.36622948 21.94920175 96.37179288 19.28198242 96.37060547 C15.88256678 96.37040261 12.48399026 96.39767879 9.08477306 96.43214989 C5.82087072 96.45988616 2.55697284 96.45857135 -0.70703125 96.4609375 C-2.52458672 96.48249405 -2.52458672 96.48249405 -4.37886047 96.50448608 C-12.34279096 96.46166756 -17.66592787 95.67429183 -23.78848267 90.48377991 C-29.509902 84.31643552 -28.8570582 76.91332679 -28.76171875 68.95703125 C-28.76322347 67.50070379 -28.76665913 66.04437718 -28.77192688 64.58805847 C-28.77624072 61.54925852 -28.75955064 58.51152639 -28.72729492 55.47290039 C-28.68740633 51.58534362 -28.69686612 47.69977522 -28.72152996 43.81215382 C-28.73573115 40.81023437 -28.72561435 37.80877724 -28.70801735 34.80689049 C-28.70218542 33.37362459 -28.7034435 31.94031106 -28.71204185 30.5070591 C-28.72006082 28.50441083 -28.69219971 26.50171671 -28.6628418 24.49926758 C-28.65584763 23.36201736 -28.64885345 22.22476715 -28.64164734 21.05305481 C-27.57459173 15.97584331 -24.15784845 13.77189897 -20 11 C-17.30078125 10.8046875 -17.30078125 10.8046875 -14.3125 10.875 C-12.82169922 10.90207031 -12.82169922 10.90207031 -11.30078125 10.9296875 C-10.54152344 10.95289063 -9.78226563 10.97609375 -9 11 C-9.061875 9.741875 -9.12375 8.48375 -9.1875 7.1875 C-9.16684038 3.29660512 -9.16684038 3.29660512 -7.875 1 C-5.10184376 -0.47901666 -3.08815875 -0.38601984 0 0 Z " fill="#FDF9F9" transform="translate(218,244)"/>
<path d="M0 0 C6.50864474 4.66051104 10.06383657 10.52471731 12.1875 18.25 C12.61264091 21.55338589 12.66518747 24.79735094 12.625 28.125 C12.61670166 29.00833008 12.60840332 29.89166016 12.59985352 30.80175781 C12.34994302 40.43176069 9.90988617 47.39055882 3.25390625 54.4921875 C-3.60171077 60.32399782 -11.32781393 62.58181101 -20.15234375 62.46484375 C-27.88345558 61.84045146 -31.77575453 59.28062123 -37.8125 54.25 C-38.1425 65.47 -38.4725 76.69 -38.8125 88.25 C-44.0925 88.25 -49.3725 88.25 -54.8125 88.25 C-54.8125 57.89 -54.8125 27.53 -54.8125 -3.75 C-49.5325 -3.75 -44.2525 -3.75 -38.8125 -3.75 C-38.8125 -1.77 -38.8125 0.21 -38.8125 2.25 C-38.1525 2.25 -37.4925 2.25 -36.8125 2.25 C-36.8125 1.59 -36.8125 0.93 -36.8125 0.25 C-35.39921871 -0.56837442 -33.98171654 -1.37946219 -32.5625 -2.1875 C-31.37914062 -2.86619141 -31.37914062 -2.86619141 -30.171875 -3.55859375 C-20.37543027 -8.50547395 -8.89748091 -5.51850392 0 0 Z " fill="#394256" transform="translate(528.8125,274.75)"/>
<path d="M0 0 C5.99422568 4.53834172 9.36387056 10.59719375 11.33203125 17.765625 C11.75082851 20.88307462 11.80962353 23.93565383 11.76953125 27.078125 C11.76195801 27.91118164 11.75438477 28.74423828 11.74658203 29.60253906 C11.50397678 38.70820482 9.44487269 46.53280414 3.03125 53.26953125 C-4.01391613 59.47251661 -11.63326704 62.27652366 -21.0390625 62.08984375 C-27.43950009 61.30048815 -32.57169477 58.58783049 -37.66796875 54.765625 C-37.99796875 65.655625 -38.32796875 76.545625 -38.66796875 87.765625 C-43.94796875 87.765625 -49.22796875 87.765625 -54.66796875 87.765625 C-54.66796875 57.405625 -54.66796875 27.045625 -54.66796875 -4.234375 C-49.71796875 -4.234375 -44.76796875 -4.234375 -39.66796875 -4.234375 C-39.00796875 -2.584375 -38.34796875 -0.934375 -37.66796875 0.765625 C-36.63671875 -0.018125 -35.60546875 -0.801875 -34.54296875 -1.609375 C-23.49451252 -9.4095851 -10.87433488 -6.88206754 0 0 Z " fill="#394257" transform="translate(606.66796875,275.234375)"/>
<path d="M0 0 C0.74886475 0.00523682 1.49772949 0.01047363 2.26928711 0.01586914 C3.07817383 0.0190918 3.88706055 0.02231445 4.72045898 0.02563477 C5.5705957 0.03401367 6.42073242 0.04239258 7.29663086 0.05102539 C8.15063477 0.05553711 9.00463867 0.06004883 9.88452148 0.06469727 C12.00108749 0.07652166 14.11761771 0.0944577 16.23413086 0.11352539 C19.0373569 5.54025898 21.45186391 10.96094144 23.59741211 16.67602539 C23.9066008 17.48933823 24.21578949 18.30265106 24.53434753 19.14060974 C25.54273011 21.79664611 26.54492123 24.4549659 27.54663086 27.11352539 C28.24821191 28.96786496 28.95003846 30.82211167 29.65209961 32.67626953 C31.11003413 36.52950623 32.56494641 40.38386689 34.01782227 44.23901367 C35.85193251 49.10433352 37.69498088 53.96620724 39.5410614 58.82699585 C40.94149696 62.51698968 42.33740514 66.20868366 43.73202515 69.90087891 C44.39865221 71.66382602 45.06679796 73.42619965 45.73648071 75.18798828 C46.66753677 77.63926724 47.59227534 80.09283715 48.51538086 82.54711914 C48.93136787 83.63638954 48.93136787 83.63638954 49.35575867 84.74766541 C50.4535968 87.68353575 51.23413086 89.95092092 51.23413086 93.11352539 C45.62413086 93.11352539 40.01413086 93.11352539 34.23413086 93.11352539 C30.70316854 85.52849523 28.08232013 78.08845535 25.23413086 70.11352539 C13.35413086 70.11352539 1.47413086 70.11352539 -10.76586914 70.11352539 C-12.74586914 75.39352539 -14.72586914 80.67352539 -16.76586914 86.11352539 C-17.75586914 88.42352539 -18.74586914 90.73352539 -19.76586914 93.11352539 C-25.37586914 93.11352539 -30.98586914 93.11352539 -36.76586914 93.11352539 C-34.88697312 86.68074894 -32.85235596 80.37538451 -30.50024414 74.10180664 C-30.03440666 72.84848289 -30.03440666 72.84848289 -29.55915833 71.56983948 C-28.5482706 68.8538987 -27.53238812 66.13986306 -26.51586914 63.42602539 C-25.80874444 61.53231245 -25.10163198 59.63859494 -24.39453125 57.74487305 C-19.4304409 44.470666 -14.40300796 31.22083784 -9.32836914 17.98852539 C-9.00195435 17.13529694 -8.67553955 16.28206848 -8.3392334 15.40298462 C-7.42327135 13.01105114 -6.50351428 10.62061819 -5.58227539 8.23071289 C-5.31010696 7.51927628 -5.03793854 6.80783966 -4.75752258 6.07484436 C-2.46672502 0.15858249 -2.46672502 0.15858249 0 0 Z " fill="#394256" transform="translate(414.765869140625,242.886474609375)"/>
<path d="M0 0 C0.886875 0.680625 1.77375 1.36125 2.6875 2.0625 C3.48929688 2.6503125 4.29109375 3.238125 5.1171875 3.84375 C11.081162 8.9919833 14.52834826 15.93421152 15.34375 23.71875 C15.95091769 34.96768614 13.90696646 43.44242199 6.82421875 52.42578125 C0.50329766 59.35472682 -6.98095485 62.46758972 -16.22265625 63.3359375 C-25.75216114 63.64295996 -33.89006051 61.54586508 -41.6875 55.875 C-50.15946727 46.79789221 -52.94563448 37.19568133 -52.61328125 25.0390625 C-51.84009635 14.81695558 -46.93862614 7.76208745 -39.3125 1.0625 C-27.18053828 -6.78547523 -12.55303945 -7.34234383 0 0 Z " fill="#3A4357" transform="translate(678.3125,273.9375)"/>
<path d="M0 0 C21.45 0 42.9 0 65 0 C65.103125 8.1675 65.20625 16.335 65.3125 24.75 C65.35802002 27.32393555 65.40354004 29.89787109 65.45043945 32.54980469 C65.46504278 34.59048153 65.47778381 36.63117291 65.48828125 38.671875 C65.51386108 39.73100098 65.53944092 40.79012695 65.5657959 41.88134766 C65.57010977 49.12519291 65.57010977 49.12519291 63.25683594 52.67480469 C58.0509258 54.79307157 52.96918966 54.56923685 47.40234375 54.53125 C46.17592667 54.5350769 44.94950958 54.53890381 43.68592834 54.54284668 C41.09619322 54.54556603 38.50643063 54.53820341 35.91674805 54.52148438 C31.94843503 54.50005904 27.98192892 54.52129714 24.01367188 54.546875 C21.49739183 54.54423209 18.98111291 54.53910788 16.46484375 54.53125 C15.27624252 54.53934692 14.0876413 54.54744385 12.86302185 54.55578613 C11.75830032 54.54317749 10.6535788 54.53056885 9.51538086 54.51757812 C8.05907509 54.51280457 8.05907509 54.51280457 6.573349 54.50793457 C3.20146183 53.84238238 2.02604604 52.74712754 0 50 C-0.48101807 47.62078857 -0.48101807 47.62078857 -0.45410156 44.95605469 C-0.45361816 43.94140137 -0.45313477 42.92674805 -0.45263672 41.88134766 C-0.43217285 40.82222168 -0.41170898 39.7630957 -0.390625 38.671875 C-0.38659668 37.69299316 -0.38256836 36.71411133 -0.37841797 35.70556641 C-0.35751038 32.05351991 -0.3016648 28.40174088 -0.25 24.75 C-0.1675 16.5825 -0.085 8.415 0 0 Z " fill="#E73B45" transform="translate(201,275)"/>
<path d="M0 0 C4.59674391 5.00233896 7.25634214 11.27114599 7.23852539 18.05932617 C7.23844986 19.02009567 7.23837433 19.98086517 7.23829651 20.9707489 C7.23313522 22.00520645 7.22797394 23.039664 7.22265625 24.10546875 C7.2212413 25.16663406 7.21982635 26.22779938 7.21836853 27.32112122 C7.21276606 30.71410935 7.20021314 34.10703177 7.1875 37.5 C7.18248532 39.79882717 7.17792236 42.09765538 7.17382812 44.39648438 C7.16279583 50.03518162 7.14552952 55.67382966 7.125 61.3125 C2.175 61.3125 -2.775 61.3125 -7.875 61.3125 C-7.88958252 60.17820557 -7.90416504 59.04391113 -7.91918945 57.87524414 C-7.9775494 53.63128525 -8.05477728 49.3878362 -8.13745117 45.14428711 C-8.17052431 43.31429372 -8.19860999 41.48420263 -8.22143555 39.65405273 C-8.25530807 37.00983387 -8.30763641 34.36649621 -8.36328125 31.72265625 C-8.36967117 30.91603043 -8.3760611 30.1094046 -8.38264465 29.27833557 C-8.54249191 22.97841794 -9.36442899 16.13081842 -13.69140625 11.2734375 C-16.51706645 10.02994482 -18.72878597 9.91416799 -21.8125 9.9375 C-23.34197266 9.92589844 -23.34197266 9.92589844 -24.90234375 9.9140625 C-29.07401487 10.47320896 -31.726327 12.12280296 -34.625 15.125 C-37.55704531 20.2560793 -37.07420149 26.66423043 -37.19140625 32.4296875 C-37.21218735 33.28684357 -37.23296844 34.14399963 -37.25437927 35.02713013 C-37.31941261 37.74717714 -37.37854341 40.46731517 -37.4375 43.1875 C-37.48072924 45.03907166 -37.5243449 46.89063434 -37.56835938 48.7421875 C-37.67504621 53.26553331 -37.77644194 57.78897007 -37.875 62.3125 C-43.155 62.3125 -48.435 62.3125 -53.875 62.3125 C-53.875 40.8625 -53.875 19.4125 -53.875 -2.6875 C-48.595 -2.6875 -43.315 -2.6875 -37.875 -2.6875 C-37.545 -1.0375 -37.215 0.6125 -36.875 2.3125 C-36.19953125 1.89097656 -35.5240625 1.46945312 -34.828125 1.03515625 C-33.93609375 0.48730469 -33.0440625 -0.06054688 -32.125 -0.625 C-30.80242188 -1.44291016 -30.80242188 -1.44291016 -29.453125 -2.27734375 C-20.3351632 -7.26459255 -8.63441191 -5.06802438 0 0 Z " fill="#394256" transform="translate(787.875,273.6875)"/>
<path d="M0 0 C5.28 0 10.56 0 16 0 C17.47559816 4.01590112 18.95079085 8.03194709 20.42504883 12.04833984 C20.9241767 13.40779604 21.4235174 14.76717411 21.9230957 16.12646484 C22.65114802 18.10752966 23.37846872 20.08886129 24.10546875 22.0703125 C24.34578827 22.72469299 24.58610779 23.37907349 24.83370972 24.05328369 C26.05580522 27.38946423 27.2626723 30.73014983 28.44384766 34.08105469 C28.67252029 34.72871796 28.90119293 35.37638123 29.13679504 36.04367065 C29.76480753 37.82750609 30.38899042 39.61268841 31.01293945 41.39794922 C31.75562152 43.89240201 31.75562152 43.89240201 33 45 C33.37286133 43.95658447 33.74572266 42.91316895 34.12988281 41.83813477 C35.52794667 37.92868443 36.93055674 34.02087761 38.33447266 30.11352539 C38.93888424 28.42939295 39.54209892 26.74483042 40.14404297 25.05981445 C41.01467619 22.62334088 41.88975173 20.1885003 42.765625 17.75390625 C43.02933899 17.01290176 43.29305298 16.27189728 43.5647583 15.50843811 C45.47377978 10.22076513 47.67240876 5.11760317 50 0 C54.95 0 59.9 0 65 0 C63.87669355 7.86314513 63.87669355 7.86314513 62.19921875 11.796875 C61.80863281 12.73112305 61.41804687 13.66537109 61.015625 14.62792969 C60.57734375 15.65821289 60.1390625 16.68849609 59.6875 17.75 C58.69812004 20.12354733 57.71181437 22.49813881 56.73046875 24.875 C56.31527481 25.87935089 56.31527481 25.87935089 55.89169312 26.9039917 C50.80569248 39.27085942 46.01107642 51.75709196 41.14804077 64.21276855 C40.27410646 66.45091699 39.39979377 68.68891773 38.52507019 70.92675781 C37.71829169 72.99109729 36.9125732 75.05585148 36.10810852 77.12109375 C35.74307724 78.0553418 35.37804596 78.98958984 35.00195312 79.95214844 C34.68649536 80.76117615 34.3710376 81.57020386 34.04602051 82.40374756 C32.74872284 85.62367702 31.36746899 88.80923903 30 92 C24.72 92 19.44 92 14 92 C15.31691828 87.11965577 16.72792136 82.48718037 18.86328125 77.90234375 C19.19255615 77.17716553 19.52183105 76.4519873 19.86108398 75.70483398 C20.52372424 74.26387464 21.21122905 72.83402436 21.92602539 71.41821289 C25.10789401 64.40489574 22.61748883 59.34701745 20.04928589 52.44494629 C19.01701613 49.79590474 17.95173336 47.16252009 16.875 44.53125 C16.48683105 43.57029419 16.09866211 42.60933838 15.69873047 41.6192627 C14.47003386 38.57778159 13.23575381 35.53861999 12 32.5 C10.36986886 28.49163762 8.74568567 24.48093935 7.125 20.46875 C6.75616699 19.56741333 6.38733398 18.66607666 6.00732422 17.73742676 C3.65095952 11.90203854 1.72984812 6.05174852 0 0 Z " fill="#394256" transform="translate(851,271)"/>
<path d="M0 0 C5.28 0 10.56 0 16 0 C16 6.6 16 13.2 16 20 C20.29 20 24.58 20 29 20 C29 24.29 29 28.58 29 33 C24.71 33 20.42 33 16 33 C16.09354152 37.92994256 16.19963642 42.85939439 16.31738281 47.78881836 C16.35566993 49.46582634 16.39052331 51.14291638 16.421875 52.82006836 C16.46753179 55.23060432 16.5255241 57.64057557 16.5859375 60.05078125 C16.59748871 60.80087967 16.60903992 61.55097809 16.62094116 62.32380676 C16.72695459 66.06127713 16.87619082 67.81428623 19 71 C21.42521494 71.58189266 21.42521494 71.58189266 24.125 71.6875 C25.73375 71.790625 27.3425 71.89375 29 72 C29 75.63 29 79.26 29 83 C22.63911314 85.94485503 17.87754802 86.54418177 11 85 C6.0107199 82.83074778 2.99085164 79.39237058 0.91259766 74.37451172 C-0.19344824 70.28468656 -0.35148574 66.53696021 -0.4140625 62.3203125 C-0.43342865 61.50754852 -0.4527948 60.69478455 -0.4727478 59.85739136 C-0.53217883 57.28003188 -0.57878181 54.70262685 -0.625 52.125 C-0.66321343 50.36977298 -0.70226709 48.61456403 -0.7421875 46.859375 C-0.83784999 42.57306476 -0.92201449 38.28666681 -1 34 C-2.17369141 33.90912109 -2.17369141 33.90912109 -3.37109375 33.81640625 C-4.38300781 33.73261719 -5.39492188 33.64882813 -6.4375 33.5625 C-7.44683594 33.48128906 -8.45617187 33.40007812 -9.49609375 33.31640625 C-12 33 -12 33 -13 32 C-13.14355117 27.99779347 -13.04216403 24.00558317 -13 20 C-9.04 19.67 -5.08 19.34 -1 19 C-0.67 12.73 -0.34 6.46 0 0 Z " fill="#3A4357" transform="translate(815,251)"/>
<path d="M0 0 C4.36775158 3.14884416 7.96773395 6.77820184 9.6875 11.9375 C10.74451754 29.25632591 10.74451754 29.25632591 4.25 36.75 C-0.8733491 41.12359069 -4.77834766 41.32456226 -11.40234375 41.1796875 C-15.90280935 40.80515211 -18.72641413 39.73159713 -21.7421875 36.3203125 C-27.04114502 29.34484865 -26.85733644 22.52124385 -26.3125 13.9375 C-25.26581186 7.99346369 -22.61399356 4.76039922 -17.93359375 1.06640625 C-12.77864785 -2.52342354 -5.77032559 -1.85085915 0 0 Z " fill="#FBFBFC" transform="translate(515.3125,283.0625)"/>
<path d="M0 0 C4.49756303 2.63557193 7.19285513 5.46977625 8.75 10.5 C9.97129196 19.22383416 10.05961711 28.18133858 4.75 35.5 C-0.740287 40.59812365 -4.6238918 40.91709281 -11.9765625 40.8359375 C-17.54917438 40.26404654 -20.0639262 38.09841706 -23.5546875 33.94921875 C-27.76170243 27.40658519 -27.01404335 18.93772808 -26.25 11.5 C-24.67429887 6.0293073 -20.72373738 2.73632066 -16.25 -0.5 C-10.77421337 -2.32526221 -5.34259653 -2.30127023 0 0 Z " fill="#FBFBFC" transform="translate(668.25,283.5)"/>
<path d="M0 0 C4.66743313 2.64959335 6.94520519 6.33561558 8.625 11.375 C9.87528666 28.46908317 9.87528666 28.46908317 4.625 35.375 C0.47285544 39.59701237 -3.66055598 40.70566103 -9.5 40.9375 C-15.55540326 40.64044248 -18.53342804 39.18626186 -22.83984375 34.92578125 C-27.8461599 28.75456052 -27.23265531 20.80050227 -26.60986328 13.27148438 C-25.98891072 8.25738927 -24.33246096 5.1971526 -20.6796875 1.796875 C-14.30131128 -2.90298117 -7.17391534 -3.16025639 0 0 Z " fill="#FBFBFC" transform="translate(593.375,283.625)"/>
<path d="M0 0 C4.95 0 9.9 0 15 0 C15 21.45 15 42.9 15 65 C10.05 65 5.1 65 0 65 C-1.79096045 63.20903955 -1.12766791 60.53667215 -1.12939453 58.11914062 C-1.13254669 56.86113647 -1.13569885 55.60313232 -1.13894653 54.30700684 C-1.13715675 52.92342087 -1.1351058 51.53983522 -1.1328125 50.15625 C-1.13348559 48.74759911 -1.13445565 47.33894834 -1.13571167 45.93029785 C-1.13718842 42.97451677 -1.13503483 40.01876586 -1.13037109 37.06298828 C-1.12467381 33.26625416 -1.12795293 29.46959072 -1.13394356 25.67285919 C-1.13754979 22.76303572 -1.1364103 19.85322912 -1.13381577 16.94340515 C-1.13314667 15.543106 -1.13397432 14.14280533 -1.13629532 12.74250793 C-1.13882283 10.78862536 -1.13429033 8.83473745 -1.12939453 6.88085938 C-1.12859894 5.76690796 -1.12780334 4.65295654 -1.12698364 3.50524902 C-1 1 -1 1 0 0 Z " fill="#384156" transform="translate(705,271)"/>
<path d="M0 0 C3.05078125 1.11328125 3.05078125 1.11328125 4.05078125 3.11328125 C4.60603542 7.15038971 4.37765704 8.66935545 1.92700195 11.99755859 C0.9597897 12.99744163 -0.02488624 13.98063163 -1.0234375 14.94921875 C-1.54428421 15.47343414 -2.06513092 15.99764954 -2.60176086 16.53775024 C-3.70339841 17.63908955 -4.8125033 18.73300362 -5.9284668 19.81982422 C-7.63317109 21.48481624 -9.30654133 23.17721225 -10.97851562 24.875 C-12.05424256 25.94316852 -13.1316623 27.00963551 -14.2109375 28.07421875 C-14.95968391 28.83344131 -14.95968391 28.83344131 -15.72355652 29.60800171 C-17.96875379 31.76440267 -19.48157982 33.0331566 -22.58813477 33.56542969 C-26.57635841 32.80168342 -29.08709199 30.48056534 -32.19921875 27.98828125 C-32.83601562 27.51390625 -33.4728125 27.03953125 -34.12890625 26.55078125 C-37.24243318 24.09970686 -38.74430856 22.75694952 -39.97265625 18.8984375 C-39.94921875 16.11328125 -39.94921875 16.11328125 -38.32421875 13.67578125 C-35.94921875 12.11328125 -35.94921875 12.11328125 -33.63671875 12.05078125 C-29.9640128 13.50278128 -27.04746932 15.69361005 -23.94921875 18.11328125 C-20.67800307 16.69781239 -18.69178197 15.01220962 -16.3046875 12.3828125 C-15.28858398 11.30290039 -15.28858398 11.30290039 -14.25195312 10.20117188 C-12.84134048 8.68375384 -11.44282236 7.15500245 -10.05664062 5.61523438 C-4.84659891 0.13902212 -4.84659891 0.13902212 0 0 Z " fill="#FDF6F6" transform="translate(251.94921875,285.88671875)"/>
<path d="M0 0 C0.66 0 1.32 0 2 0 C3.85529552 5.37382856 5.70660754 10.74900616 7.55419922 16.12548828 C8.18363178 17.95529457 8.81416201 19.78472364 9.44580078 21.61376953 C10.35215705 24.23893016 11.25459058 26.86541054 12.15625 29.4921875 C12.44060913 30.31306854 12.72496826 31.13394958 13.01794434 31.97970581 C15 37.77225659 15 37.77225659 15 40 C6.09 40 -2.82 40 -12 40 C-11.23804932 34.66634525 -10.21955427 30.11691848 -8.49609375 25.09765625 C-8.2533522 24.3750914 -8.01061066 23.65252655 -7.76051331 22.9080658 C-6.99184073 20.62425181 -6.2148266 18.34338111 -5.4375 16.0625 C-4.91155318 14.50474497 -4.3861571 12.94680388 -3.86132812 11.38867188 C-2.58057492 7.59026747 -1.2923382 3.79447765 0 0 Z " fill="#F7F8F8" transform="translate(421,259)"/>
<path d="M0 0 C4.29477197 2.46551724 4.29477197 2.46551724 6 5 C6.7394557 8.14828865 6.67831686 10.84435198 6 14 C3.87458538 17.40066339 2.4307695 17.88251741 -1.4375 18.9375 C-5.42986787 19.00754154 -6.91918433 18.46465254 -10 16 C-12.4915904 12.2626144 -12.45793285 10.42668417 -12 6 C-8.62794354 0.82951342 -6.18928406 -0.71414816 0 0 Z " fill="#384054" transform="translate(715,242)"/>
<path d="M0 0 C0.33 0 0.66 0 1 0 C1.33 20.46 1.66 40.92 2 62 C7.445 61.505 7.445 61.505 13 61 C13.33 45.16 13.66 29.32 14 13 C14.33 13 14.66 13 15 13 C15.33 29.83 15.66 46.66 16 64 C11.05 64 6.1 64 1 64 C0 63 0 63 -0.12025452 60.48802185 C-0.11803391 59.37105423 -0.11581329 58.25408661 -0.11352539 57.10327148 C-0.11344986 55.84203964 -0.11337433 54.5808078 -0.11329651 53.28135681 C-0.1081891 51.89460206 -0.10297309 50.50784771 -0.09765625 49.12109375 C-0.09579201 47.71004791 -0.09436814 46.29900143 -0.09336853 44.88795471 C-0.08954379 41.16759465 -0.0797139 37.4472734 -0.06866455 33.72692871 C-0.05844948 29.93319219 -0.05387071 26.13944942 -0.04882812 22.34570312 C-0.03809158 14.89711769 -0.0210157 7.44856428 0 0 Z " fill="#454D60" transform="translate(704,272)"/>
<path d="M0 0 C5.28 0 10.56 0 16 0 C16 6.6 16 13.2 16 20 C14 18 14 18 13.8046875 14.3046875 C13.817991 12.82799892 13.84185165 11.35137642 13.875 9.875 C13.88402344 9.12089844 13.89304687 8.36679687 13.90234375 7.58984375 C13.9259313 5.72642746 13.96180281 3.86317407 14 2 C9.71 2 5.42 2 1 2 C1 7.61 1 13.22 1 19 C0.67 19 0.34 19 0 19 C0 12.73 0 6.46 0 0 Z " fill="#2A3043" transform="translate(815,251)"/>
</svg>
