<?xml version="1.0" encoding="UTF-8"?>
<svg version="1.1" xmlns="http://www.w3.org/2000/svg" width="222" height="216">
<path d="M0 0 C0.65302094 -0.00350464 1.30604187 -0.00700928 1.97885132 -0.01062012 C4.11491866 -0.01934709 6.25064865 -0.01362067 8.38671875 -0.00683594 C9.88452212 -0.00818519 11.38232507 -0.01012789 12.88012695 -0.01263428 C16.01029657 -0.0155733 19.14035158 -0.0113274 22.27050781 -0.00195312 C26.26832707 0.00944073 30.26587771 0.00287469 34.26368713 -0.00909805 C37.35390216 -0.01634976 40.44405425 -0.01401357 43.53427124 -0.00884247 C45.00776197 -0.00751512 46.48125854 -0.00912139 47.95474243 -0.01380157 C50.01945985 -0.0189216 52.08375151 -0.01108078 54.1484375 0 C55.90546997 0.00238678 55.90546997 0.00238678 57.69799805 0.00482178 C62.89372014 0.39565625 67.78236559 1.22382962 71.44921875 5.13378906 C72.17238281 5.87242187 72.17238281 5.87242187 72.91015625 6.62597656 C75.17568362 9.80379683 75.20681045 13.28486278 75.26367188 17.08740234 C75.28874817 18.51876022 75.28874817 18.51876022 75.31433105 19.97903442 C75.33469421 21.51356766 75.33469421 21.51356766 75.35546875 23.07910156 C75.37387817 24.13410858 75.3922876 25.1891156 75.41125488 26.27609253 C75.48993089 30.79056683 75.55781825 35.30518799 75.62646484 39.81982422 C75.6781021 43.11466039 75.73537254 46.40936506 75.79296875 49.70410156 C75.81333191 51.24470749 75.81333191 51.24470749 75.83410645 52.81643677 C75.85918274 54.23833817 75.85918274 54.23833817 75.88476562 55.68896484 C75.8972937 56.52517365 75.90982178 57.36138245 75.92272949 58.22293091 C75.94971003 60.32611273 75.94971003 60.32611273 77.07421875 62.25878906 C78.01263107 62.26758842 78.01263107 62.26758842 78.97000122 62.27656555 C85.49168958 62.34058634 92.01288845 62.42502878 98.53417969 62.52124023 C100.96673115 62.55445853 103.39935912 62.58250005 105.83203125 62.60522461 C109.33236233 62.63882664 112.8319943 62.6911474 116.33203125 62.74707031 C117.9589238 62.7566552 117.9589238 62.7566552 119.61868286 62.76643372 C125.13037722 62.87333045 129.38291521 63.02597845 134.07421875 66.25878906 C138.10895161 71.63391975 138.71695927 76.03424901 138.82421875 82.63378906 C138.85241699 83.5620752 138.88061523 84.49036133 138.90966797 85.44677734 C138.99450796 88.71759599 139.03900973 91.987059 139.07421875 95.25878906 C139.08936523 96.57621094 139.10451172 97.89363281 139.12011719 99.25097656 C139.16396981 103.5452133 139.18578454 107.83935913 139.19921875 112.13378906 C139.20207886 112.81640808 139.20493896 113.4990271 139.20788574 114.20233154 C139.2995346 145.31524688 139.2995346 145.31524688 134.85131836 150.08300781 C124.79285012 156.73798557 109.27522768 154.82168516 97.82421875 154.94628906 C95.71091703 154.97951708 93.59763483 155.01401166 91.484375 155.04980469 C86.34776493 155.1340776 81.21119423 155.2011811 76.07421875 155.25878906 C76.07057312 155.86964859 76.06692749 156.48050812 76.06317139 157.10987854 C76.0212592 163.48582578 75.95185237 169.86105902 75.86669922 176.23657227 C75.83852828 178.61377816 75.81729455 180.99107704 75.80322266 183.3684082 C75.78174026 186.79198685 75.73506002 190.21445196 75.68359375 193.63769531 C75.68236511 194.69525528 75.68113647 195.75281525 75.67987061 196.84242249 C75.55486935 203.18489538 74.81786203 207.08264706 71.07421875 212.25878906 C66.74606345 216.19347569 62.92115623 216.38672562 57.21948242 216.40405273 C56.17989632 216.40909065 56.17989632 216.40909065 55.11930847 216.41423035 C52.8269166 216.42373288 50.53459785 216.42568326 48.2421875 216.42675781 C46.64659088 216.42997143 45.05099456 216.43333558 43.45539856 216.43684387 C40.10884926 216.44283378 36.76232577 216.44468397 33.41577148 216.4440918 C29.1352702 216.44399031 24.85493528 216.45762937 20.57447338 216.47486401 C17.27756496 216.48600462 13.98069645 216.48801035 10.68377113 216.48748207 C9.10617819 216.48865958 7.52858412 216.4930685 5.95100975 216.50081444 C3.73960241 216.51065384 1.52855223 216.50772064 -0.68286133 216.50170898 C-1.93956131 216.503134 -3.19626129 216.50455902 -4.49104309 216.50602722 C-9.67080492 216.13317936 -12.89753857 215.24029344 -16.67578125 211.63378906 C-21.50369624 205.21723354 -21.20497179 197.29655936 -21.12109375 189.63378906 C-21.11826385 188.64628662 -21.11543396 187.65878418 -21.11251831 186.64135742 C-21.10139945 183.51370691 -21.07631041 180.38635178 -21.05078125 177.25878906 C-21.04074073 175.12728281 -21.03161676 172.99577202 -21.0234375 170.86425781 C-21.00148737 165.66233557 -20.96809332 160.46058343 -20.92578125 155.25878906 C-21.4732048 155.25514343 -22.02062836 155.2514978 -22.5846405 155.2477417 C-28.34517038 155.20553537 -34.10493145 155.13593135 -39.86499023 155.05126953 C-42.00716415 155.02325463 -44.14943769 155.00194449 -46.29174805 154.98779297 C-72.64093994 154.80340394 -72.64093994 154.80340394 -79.92578125 150.25878906 C-82.7001111 145.73793292 -83.30392081 142.31065919 -83.31396484 137.04760742 C-83.3192218 136.35250565 -83.32447876 135.65740387 -83.32989502 134.9412384 C-83.34302126 132.66013641 -83.33438471 130.379741 -83.32421875 128.09863281 C-83.32624139 126.50492724 -83.32915441 124.91122256 -83.33291626 123.31752014 C-83.3373294 119.98462066 -83.33094044 116.65196307 -83.31689453 113.3190918 C-83.29978913 109.05302434 -83.3096585 104.78752259 -83.32761192 100.52147579 C-83.33846531 97.2331569 -83.33499656 93.94497161 -83.32722855 90.65664864 C-83.32523155 89.08381648 -83.3276682 87.51097207 -83.33466721 85.93815422 C-83.34230911 83.73863569 -83.33064103 81.54002714 -83.31396484 79.34057617 C-83.31157806 78.09070419 -83.30919128 76.84083221 -83.30673218 75.55308533 C-82.76076461 70.83179762 -80.64358412 67.23303136 -76.92578125 64.25878906 C-73.8281213 63.26999871 -70.93781216 63.10850803 -67.69824219 63.0534668 C-66.65746521 63.03352158 -65.61668823 63.01357635 -64.54437256 62.99302673 C-63.42758118 62.97631424 -62.31078979 62.95960175 -61.16015625 62.94238281 C-60.0116217 62.92160172 -58.86308716 62.90082062 -57.67974854 62.87940979 C-54.01182014 62.81403913 -50.34382032 62.75508712 -46.67578125 62.69628906 C-44.18879471 62.65309199 -41.70181538 62.60947732 -39.21484375 62.56542969 C-33.11856503 62.45837048 -27.0222153 62.35658081 -20.92578125 62.25878906 C-20.9346637 61.66489883 -20.94354614 61.07100861 -20.95269775 60.4591217 C-21.04158972 54.24555136 -21.10168828 48.03216337 -21.14550781 41.81811523 C-21.16555125 39.50293635 -21.1927935 37.18780764 -21.22753906 34.87280273 C-21.27637667 31.53389055 -21.2988235 28.19565107 -21.31640625 24.85644531 C-21.33705139 23.8310817 -21.35769653 22.80571808 -21.37896729 21.74928284 C-21.38103377 15.04391142 -20.17041859 10.13959365 -16.92578125 4.25878906 C-15.93578125 4.25878906 -14.94578125 4.25878906 -13.92578125 4.25878906 C-13.92578125 3.59878906 -13.92578125 2.93878906 -13.92578125 2.25878906 C-9.12286483 0.71818949 -5.09098108 0.00691567 0 0 Z " fill="#EA3F49" transform="translate(82.92578125,-0.2587890625)"/>
<path d="M0 0 C1.875 1 1.875 1 3 3 C3 5.64 3 8.28 3 11 C10.92 11 18.84 11 27 11 C27 8.36 27 5.72 27 3 C28.125 1 28.125 1 30 0 C33.08815875 -0.38601984 35.10184376 -0.47901666 37.875 1 C39.70488947 4.25313684 39.18128355 7.31390109 39 11 C39.73605469 10.96519531 40.47210938 10.93039063 41.23046875 10.89453125 C51.152963 10.61927051 51.152963 10.61927051 55 14 C58.53469397 17.75626643 59.50090951 20.00376088 59.50170898 25.14794922 C59.51108994 26.36626434 59.52047089 27.58457947 59.53013611 28.83981323 C59.51890213 30.14822174 59.50766815 31.45663025 59.49609375 32.8046875 C59.49624888 34.17082801 59.49774019 35.53696896 59.50050354 36.90310669 C59.50188577 39.76291422 59.48936328 42.62221918 59.46655273 45.48193359 C59.43822176 49.1324654 59.44089275 52.78215934 59.45364285 56.43275261 C59.46062817 59.25366257 59.45277757 62.07438188 59.44038582 64.89526749 C59.43372314 66.89093189 59.4379981 68.88662323 59.44248962 70.8822937 C59.366548 78.21423283 59.30259293 84.14175755 54.3515625 89.92578125 C53.78179687 90.38339844 53.21203125 90.84101563 52.625 91.3125 C52.06039062 91.78300781 51.49578125 92.25351563 50.9140625 92.73828125 C46.78744875 95.45847766 43.13834492 96.25296415 38.23510742 96.29052734 C37.100103 96.30328705 35.96509857 96.31604675 34.79570007 96.32919312 C32.96903557 96.33253159 32.96903557 96.33253159 31.10546875 96.3359375 C29.21348503 96.3459227 29.21348503 96.3459227 27.28327942 96.35610962 C24.61603674 96.36622948 21.94920175 96.37179288 19.28198242 96.37060547 C15.88256678 96.37040261 12.48399026 96.39767879 9.08477306 96.43214989 C5.82087072 96.45988616 2.55697284 96.45857135 -0.70703125 96.4609375 C-2.52458672 96.48249405 -2.52458672 96.48249405 -4.37886047 96.50448608 C-11.8733223 96.46419168 -17.87712851 95.9457205 -23.5493927 90.5171814 C-27.47030605 86.05513882 -28.12606297 82.67153584 -28.20874023 76.89550781 C-28.22803085 75.63700012 -28.24732147 74.37849243 -28.26719666 73.08184814 C-28.28200501 71.70561759 -28.29577825 70.32937556 -28.30859375 68.953125 C-28.31845149 67.91123142 -28.31845149 67.91123142 -28.32850838 66.84828949 C-28.36107414 63.17036475 -28.38552981 59.4924686 -28.4050293 55.81445312 C-28.42282642 52.77821476 -28.45762166 49.74290801 -28.50756836 46.70703125 C-28.56792573 43.03354877 -28.59852535 39.36092826 -28.60820198 35.68697357 C-28.61673257 34.29153149 -28.63549197 32.89611096 -28.6649456 31.50095367 C-28.90988783 19.23664715 -28.90988783 19.23664715 -25.08618164 14.65136719 C-21.55585829 11.26495523 -19.24198837 10.88090711 -14.375 10.9375 C-12.87066406 10.95103516 -12.87066406 10.95103516 -11.3359375 10.96484375 C-10.56507812 10.97644531 -9.79421875 10.98804687 -9 11 C-9.061875 9.741875 -9.12375 8.48375 -9.1875 7.1875 C-9.16684038 3.29660512 -9.16684038 3.29660512 -7.875 1 C-5.10184376 -0.47901666 -3.08815875 -0.38601984 0 0 Z " fill="#F7F7F9" transform="translate(96,59)"/>
<path d="M0 0 C21.45 0 42.9 0 65 0 C65.103125 8.1675 65.20625 16.335 65.3125 24.75 C65.35802002 27.32393555 65.40354004 29.89787109 65.45043945 32.54980469 C65.46504278 34.59048153 65.47778381 36.63117291 65.48828125 38.671875 C65.51386108 39.73100098 65.53944092 40.79012695 65.5657959 41.88134766 C65.57010977 49.12519291 65.57010977 49.12519291 63.25683594 52.67480469 C58.0509258 54.79307157 52.96918966 54.56923685 47.40234375 54.53125 C46.17592667 54.5350769 44.94950958 54.53890381 43.68592834 54.54284668 C41.09619322 54.54556603 38.50643063 54.53820341 35.91674805 54.52148438 C31.94843503 54.50005904 27.98192892 54.52129714 24.01367188 54.546875 C21.49739183 54.54423209 18.98111291 54.53910788 16.46484375 54.53125 C15.27624252 54.53934692 14.0876413 54.54744385 12.86302185 54.55578613 C11.75830032 54.54317749 10.6535788 54.53056885 9.51538086 54.51757812 C8.05907509 54.51280457 8.05907509 54.51280457 6.573349 54.50793457 C3.20146183 53.84238238 2.02604604 52.74712754 0 50 C-0.48101807 47.62078857 -0.48101807 47.62078857 -0.45410156 44.95605469 C-0.45361816 43.94140137 -0.45313477 42.92674805 -0.45263672 41.88134766 C-0.43217285 40.82222168 -0.41170898 39.7630957 -0.390625 38.671875 C-0.38659668 37.69299316 -0.38256836 36.71411133 -0.37841797 35.70556641 C-0.35751038 32.05351991 -0.3016648 28.40174088 -0.25 24.75 C-0.1675 16.5825 -0.085 8.415 0 0 Z " fill="#E73B44" transform="translate(79,90)"/>
<path d="M0 0 C1.8125 1.125 1.8125 1.125 3 3 C3.57358578 7.03406497 3.3245018 8.55929828 0.8762207 11.88427734 C-0.09099155 12.88416038 -1.07566749 13.86735038 -2.07421875 14.8359375 C-2.59506546 15.36015289 -3.11591217 15.88436829 -3.65254211 16.42446899 C-4.75417966 17.5258083 -5.86328455 18.61972237 -6.97924805 19.70654297 C-8.68395234 21.37153499 -10.35732258 23.063931 -12.02929688 24.76171875 C-13.10502381 25.82988727 -14.18244355 26.89635426 -15.26171875 27.9609375 C-16.01046516 28.72016006 -16.01046516 28.72016006 -16.77433777 29.49472046 C-19.018894 31.65050574 -20.53051925 32.91988398 -23.63671875 33.44995117 C-27.63032767 32.68959774 -30.17499443 30.40937617 -33.3125 27.9375 C-33.95767578 27.47150391 -34.60285156 27.00550781 -35.26757812 26.52539062 C-38.7518788 23.81537899 -39.88619109 22.78519958 -40.54296875 18.25390625 C-40 15 -40 15 -38 13 C-33.76073544 12.30988716 -31.51563319 13.0722241 -28.125 15.5 C-27.07275286 16.31993283 -26.02728193 17.14899722 -25 18 C-21.74466446 16.58385486 -19.70301907 14.88815736 -17.28515625 12.3046875 C-16.59873047 11.58925781 -15.91230469 10.87382813 -15.20507812 10.13671875 C-13.77462857 8.62672733 -12.35014461 7.1110625 -10.93164062 5.58984375 C-10.24392578 4.87699219 -9.55621094 4.16414063 -8.84765625 3.4296875 C-7.9196521 2.44331299 -7.9196521 2.44331299 -6.97290039 1.43701172 C-4.47013242 -0.3859424 -3.03218115 -0.36377438 0 0 Z " fill="#F7F8F9" transform="translate(131,101)"/>
</svg>
